<?xml version="1.0" encoding="UTF-8" standalone="no"?>
<!-- Created with Inkscape (http://www.inkscape.org/) -->

<svg
   xmlns:dc="http://purl.org/dc/elements/1.1/"
   xmlns:cc="http://creativecommons.org/ns#"
   xmlns:rdf="http://www.w3.org/1999/02/22-rdf-syntax-ns#"
   xmlns:svg="http://www.w3.org/2000/svg"
   xmlns="http://www.w3.org/2000/svg"
   xmlns:sodipodi="http://sodipodi.sourceforge.net/DTD/sodipodi-0.dtd"
   xmlns:inkscape="http://www.inkscape.org/namespaces/inkscape"
   width="10.583333mm"
   height="10.583333mm"
   viewBox="0 0 10.583333 10.583333"
   version="1.1"
   id="svg8"
   inkscape:version="0.92.4 (5da689c313, 2019-01-14)"
   sodipodi:docname="Icone constats.svg">
  <defs
     id="defs2" />
  <sodipodi:namedview
     id="base"
     pagecolor="#ffffff"
     bordercolor="#666666"
     borderopacity="1.0"
     inkscape:pageopacity="0.0"
     inkscape:pageshadow="2"
     inkscape:zoom="0.35"
     inkscape:cx="114.28571"
     inkscape:cy="-208.57144"
     inkscape:document-units="mm"
     inkscape:current-layer="layer1"
     showgrid="false"
     fit-margin-top="0"
     fit-margin-left="0"
     fit-margin-right="0"
     fit-margin-bottom="0"
     showborder="false"
     inkscape:window-width="1280"
     inkscape:window-height="898"
     inkscape:window-x="-8"
     inkscape:window-y="-8"
     inkscape:window-maximized="1" />
  <metadata
     id="metadata5">
    <rdf:RDF>
      <cc:Work
         rdf:about="">
        <dc:format>image/svg+xml</dc:format>
        <dc:type
           rdf:resource="http://purl.org/dc/dcmitype/StillImage" />
        <dc:title></dc:title>
      </cc:Work>
    </rdf:RDF>
  </metadata>
  <g
     inkscape:label="Calque 1"
     inkscape:groupmode="layer"
     id="layer1"
     transform="translate(-75.595239,-83.065473)">
    <g
       id="g83"
       transform="matrix(0.53333335,0,0,0.5333333,46.447315,67.246686)">
      <path
         inkscape:connector-curvature="0"
         style="fill:#b39361;fill-opacity:1;fill-rule:nonzero;stroke:none;stroke-width:0.86730283"
         d="m 74.496104,30.631599 c 0,-0.555069 -0.485688,-0.971371 -0.971372,-0.971371 H 55.623726 c -0.55507,0 -0.971371,0.416302 -0.971371,0.971371 0,0.34692 0.277548,0.693837 0.624455,0.832605 v 12.905367 c 0,0.138758 0.138758,0.346917 0.346916,0.346917 h 8.603583 v 1.803978 l -5.758849,2.28966 c -0.208152,0.0694 -0.277547,0.277548 -0.208152,0.416304 0.0694,0.138758 0.208152,0.277548 0.34692,0.277548 0,0 0.0694,-0.0694 0.138757,-0.0694 l 5.828234,-2.289663 5.828235,2.289663 c 0.0694,0 0.0694,0.0694 0.138757,0.0694 0.138758,0 0.277548,-0.138758 0.346918,-0.277548 0.0694,-0.138756 -0.0694,-0.346916 -0.208153,-0.416301 l -5.758853,-2.289663 v -1.803978 h 8.603586 c 0.208153,0 0.346917,-0.208153 0.346917,-0.346917 V 31.464204 c 0.34692,-0.138758 0.624455,-0.485685 0.624455,-0.832605 z M 55.623726,30.354051 h 17.901006 c 0.138757,0 0.208153,0.138758 0.208153,0.277548 0,0.138758 -0.0694,0.208153 -0.208153,0.208153 H 55.623726 c -0.138757,0 -0.277548,-0.0694 -0.277548,-0.208153 0,-0.138756 0.138758,-0.277548 0.277548,-0.277548 z M 73.177812,43.953256 H 55.970646 v -12.41968 h 17.207166 z"
         id="path51" />
      <path
         inkscape:connector-curvature="0"
         style="fill:#b39361;fill-opacity:1;fill-rule:nonzero;stroke:none;stroke-width:0.86730283"
         d="m 57.982773,42.288061 c 0.138757,0 0.208152,0 0.277548,-0.138757 l 4.163025,-5.134394 3.53857,2.844731 4.856863,-6.036384 c 0.138758,-0.138756 0.0694,-0.346916 -0.0694,-0.485683 -0.138758,-0.138758 -0.346917,-0.138758 -0.485685,0.0694 l -4.44056,5.411929 -3.469185,-2.844732 -4.648713,5.758849 c -0.138758,0.138757 -0.0694,0.346917 0.0694,0.485684 0.0694,0.0694 0.138757,0.0694 0.208153,0.0694 z"
         id="path53" />
    </g>
  </g>
</svg>
