<?xml version="1.0" encoding="UTF-8" standalone="no"?>
<!-- Created with Inkscape (http://www.inkscape.org/) -->

<svg
   xmlns:dc="http://purl.org/dc/elements/1.1/"
   xmlns:cc="http://creativecommons.org/ns#"
   xmlns:rdf="http://www.w3.org/1999/02/22-rdf-syntax-ns#"
   xmlns:svg="http://www.w3.org/2000/svg"
   xmlns="http://www.w3.org/2000/svg"
   xmlns:sodipodi="http://sodipodi.sourceforge.net/DTD/sodipodi-0.dtd"
   xmlns:inkscape="http://www.inkscape.org/namespaces/inkscape"
   width="10.58287mm"
   height="10.583323mm"
   viewBox="0 0 10.58287 10.583323"
   version="1.1"
   id="svg8"
   inkscape:version="0.92.4 (5da689c313, 2019-01-14)"
   sodipodi:docname="Icone l'équipe.svg">
  <defs
     id="defs2" />
  <sodipodi:namedview
     id="base"
     pagecolor="#ffffff"
     bordercolor="#666666"
     borderopacity="1.0"
     inkscape:pageopacity="0.0"
     inkscape:pageshadow="2"
     inkscape:zoom="0.35"
     inkscape:cx="119.99912"
     inkscape:cy="257.14283"
     inkscape:document-units="mm"
     inkscape:current-layer="layer1"
     showgrid="false"
     fit-margin-top="0"
     fit-margin-left="0"
     fit-margin-right="0"
     fit-margin-bottom="0"
     showborder="false"
     inkscape:window-width="1280"
     inkscape:window-height="898"
     inkscape:window-x="-8"
     inkscape:window-y="-8"
     inkscape:window-maximized="1" />
  <metadata
     id="metadata5">
    <rdf:RDF>
      <cc:Work
         rdf:about="">
        <dc:format>image/svg+xml</dc:format>
        <dc:type
           rdf:resource="http://purl.org/dc/dcmitype/StillImage" />
        <dc:title></dc:title>
      </cc:Work>
    </rdf:RDF>
  </metadata>
  <g
     inkscape:label="Calque 1"
     inkscape:groupmode="layer"
     id="layer1"
     transform="translate(-74.083565,-206.28572)">
    <path
       inkscape:connector-curvature="0"
       id="path14"
       d="m 82.121304,209.2393 c 0.3447,0.11099 0.52057,0.0953 0.87873,-0.0786 1.31617,-0.63895 0.9481,-2.70327 -0.4822,-2.7043 -0.52753,-4.3e-4 -0.86704,0.18728 -1.13364,0.62677 -0.48352,0.79706 -0.11242,1.88257 0.73711,2.15614 z m -6.37431,-0.0745 c 1.16552,0.58019 2.32469,-0.91313 1.61585,-2.08162 -0.26661,-0.43949 -0.60611,-0.6271 -1.13364,-0.62677 -1.43137,0.001 -1.79685,2.05397 -0.48221,2.70839 z m 6.91352,2.9341 c 0.29528,0.34899 1.33811,0.20465 1.70536,-0.23605 0.13258,-0.15908 0.14724,-0.29101 0.11509,-1.03372 -0.0582,-1.34396 -0.28338,-1.61614 -1.01742,-1.22979 -0.30663,0.16142 -0.52148,0.20451 -1.01904,0.20451 h -0.63048 l 1e-5,0.36863 c 10e-6,0.20274 -0.0725,0.57262 -0.16114,0.82196 -0.16358,0.46016 -0.1326,0.58704 0.14406,0.59065 0.16934,0.002 0.69555,0.31524 0.86356,0.51381 z m -3.73443,0.10598 c 0.13422,0.0372 0.42324,0.0481 0.64227,0.0242 1.36517,-0.14869 2.22242,-1.73004 1.64473,-3.03397 -0.37199,-0.83964 -0.98653,-1.26085 -1.83957,-1.26085 -0.85304,0 -1.46757,0.42121 -1.83957,1.26085 -0.52928,1.19465 0.1512,2.66581 1.39214,3.00971 z m -4.14891,-0.0447 c 0.13423,0.0633 0.44888,0.11648 0.69922,0.11854 0.3621,0.003 0.48684,-0.034 0.61013,-0.17975 0.16802,-0.19858 0.69421,-0.51123 0.86355,-0.51381 0.27668,-0.004 0.30764,-0.1305 0.14406,-0.59066 -0.0887,-0.24934 -0.16114,-0.61922 -0.16113,-0.82196 l 2e-5,-0.36863 h -0.6305 c -0.49756,0 -0.7124,-0.0431 -1.01903,-0.2045 -0.73405,-0.38636 -0.95923,-0.11418 -1.01742,1.22978 -0.0408,0.94385 0.0185,1.09858 0.5111,1.33099 z m 1.72334,4.43291 c 0.24547,0.0953 0.87234,0.11637 2.99503,0.10042 2.54306,-0.0191 2.69959,-0.0295 2.96904,-0.19877 0.48969,-0.30748 0.65122,-0.66101 0.64968,-1.42117 -0.002,-0.84678 -0.18205,-1.7526 -0.44365,-2.22975 -0.39449,-0.71951 -1.09114,-1.06684 -1.54805,-0.7718 -0.81027,0.5232 -1.13168,0.64099 -1.74905,0.64099 -0.61737,0 -0.93878,-0.11779 -1.74904,-0.64099 -0.20789,-0.13425 -0.29372,-0.14319 -0.57918,-0.0604 -0.18432,0.0534 -0.43145,0.17817 -0.54918,0.27716 -0.51781,0.43537 -0.86076,1.53063 -0.86334,2.75849 -0.002,0.89689 0.22133,1.29473 0.86774,1.54582 z"
       style="fill:none;stroke:#b39361;stroke-width:0.34136286;stroke-miterlimit:4;stroke-dasharray:none;stroke-opacity:1" />
  </g>
</svg>
