<?xml version="1.0" encoding="UTF-8" standalone="no"?>
<!-- Created with Inkscape (http://www.inkscape.org/) -->

<svg
   xmlns:dc="http://purl.org/dc/elements/1.1/"
   xmlns:cc="http://creativecommons.org/ns#"
   xmlns:rdf="http://www.w3.org/1999/02/22-rdf-syntax-ns#"
   xmlns:svg="http://www.w3.org/2000/svg"
   xmlns="http://www.w3.org/2000/svg"
   xmlns:xlink="http://www.w3.org/1999/xlink"
   xmlns:sodipodi="http://sodipodi.sourceforge.net/DTD/sodipodi-0.dtd"
   xmlns:inkscape="http://www.inkscape.org/namespaces/inkscape"
   width="6.8738751mm"
   height="6.8738751mm"
   viewBox="0 0 6.8738751 6.8738751"
   version="1.1"
   id="svg8"
   inkscape:version="0.92.4 (5da689c313, 2019-01-14)"
   sodipodi:docname="Icone Fiche de livraison.svg">
  <defs
     id="defs2">
    <linearGradient
       inkscape:collect="always"
       xlink:href="#linearGradient543"
       id="linearGradient545"
       x1="27.819136"
       y1="7.2100291"
       x2="3.1872551"
       y2="7.6717405"
       gradientUnits="userSpaceOnUse" />
    <linearGradient
       inkscape:collect="always"
       id="linearGradient543">
      <stop
         id="stop541"
         offset="0"
         style="stop-color:#808080;stop-opacity:1" />
      <stop
         id="stop539"
         offset="1"
         style="stop-color:#b39361;stop-opacity:1;" />
    </linearGradient>
  </defs>
  <sodipodi:namedview
     id="base"
     pagecolor="#ffffff"
     bordercolor="#666666"
     borderopacity="1.0"
     inkscape:pageopacity="0.0"
     inkscape:pageshadow="2"
     inkscape:zoom="1"
     inkscape:cx="-127.01001"
     inkscape:cy="152.98999"
     inkscape:document-units="mm"
     inkscape:current-layer="layer1"
     showgrid="false"
     fit-margin-top="0"
     fit-margin-left="0"
     fit-margin-right="0"
     fit-margin-bottom="0"
     showborder="false"
     inkscape:window-width="1280"
     inkscape:window-height="898"
     inkscape:window-x="-8"
     inkscape:window-y="-8"
     inkscape:window-maximized="1" />
  <metadata
     id="metadata5">
    <rdf:RDF>
      <cc:Work
         rdf:about="">
        <dc:format>image/svg+xml</dc:format>
        <dc:type
           rdf:resource="http://purl.org/dc/dcmitype/StillImage" />
        <dc:title />
      </cc:Work>
    </rdf:RDF>
  </metadata>
  <g
     inkscape:label="Calque 1"
     inkscape:groupmode="layer"
     id="layer1"
     transform="translate(-139.43806,-182.43806)">
    <g
       id="g9537"
       transform="matrix(-0.16366369,0,0,0.2021728,146.80293,181.02285)">
      <path
         id="path9499"
         d="M 43,36 H 29 V 14 h 10.6 c 0.9,0 1.6,0.6 1.9,1.4 L 45,26 v 8 c 0,1.1 -0.9,2 -2,2 z"
         inkscape:connector-curvature="0"
         style="fill:#8bc34a" />
      <path
         id="path9501"
         d="M 29,36 H 5 C 3.9,36 3,35.1 3,34 V 9 C 3,7.9 3.9,7 5,7 h 22 c 1.1,0 2,0.9 2,2 z"
         inkscape:connector-curvature="0"
         style="fill:url(#linearGradient545);fill-opacity:1" />
      <g
         id="g9507"
         style="fill:#37474f">
        <circle
           id="circle9503"
           r="5"
           cy="36"
           cx="37" />
        <circle
           id="circle9505"
           r="5"
           cy="36"
           cx="13" />
      </g>
      <g
         id="g9513"
         style="fill:#78909c">
        <circle
           id="circle9509"
           r="2"
           cy="36"
           cx="37" />
        <circle
           id="circle9511"
           r="2"
           cy="36"
           cx="13" />
      </g>
      <path
         id="path9515"
         d="m 41,25 h -7 c -0.6,0 -1,-0.4 -1,-1 v -7 c 0,-0.6 0.4,-1 1,-1 h 5.3 c 0.4,0 0.8,0.3 0.9,0.7 l 1.7,5.2 c 0,0.1 0.1,0.2 0.1,0.3 V 24 c 0,0.6 -0.4,1 -1,1 z"
         inkscape:connector-curvature="0"
         style="fill:#37474f" />
      <polygon
         id="polygon9517"
         points="8,20.1 13.9,26 24,15.9 21.8,13.8 13.9,21.7 10.2,17.9 "
         style="fill:#dcedc8"
         transform="matrix(-1,0,0,1,32,0)" />
    </g>
  </g>
</svg>
