<?xml version="1.0" encoding="UTF-8" standalone="no"?>
<!-- Created with Inkscape (http://www.inkscape.org/) -->

<svg
   xmlns:dc="http://purl.org/dc/elements/1.1/"
   xmlns:cc="http://creativecommons.org/ns#"
   xmlns:rdf="http://www.w3.org/1999/02/22-rdf-syntax-ns#"
   xmlns:svg="http://www.w3.org/2000/svg"
   xmlns="http://www.w3.org/2000/svg"
   xmlns:sodipodi="http://sodipodi.sourceforge.net/DTD/sodipodi-0.dtd"
   xmlns:inkscape="http://www.inkscape.org/namespaces/inkscape"
   width="10.583333mm"
   height="10.583333mm"
   viewBox="0 0 10.583333 10.583333"
   version="1.1"
   id="svg8"
   inkscape:version="0.92.4 (5da689c313, 2019-01-14)"
   sodipodi:docname="Icone a quoi va servir le financement.svg">
  <defs
     id="defs2" />
  <sodipodi:namedview
     id="base"
     pagecolor="#ffffff"
     bordercolor="#666666"
     borderopacity="1.0"
     inkscape:pageopacity="0.0"
     inkscape:pageshadow="2"
     inkscape:zoom="0.35"
     inkscape:cx="182.85714"
     inkscape:cy="19.999999"
     inkscape:document-units="mm"
     inkscape:current-layer="layer1"
     showgrid="false"
     fit-margin-top="0"
     fit-margin-left="0"
     fit-margin-right="0"
     fit-margin-bottom="0"
     showborder="false"
     inkscape:window-width="1280"
     inkscape:window-height="898"
     inkscape:window-x="-8"
     inkscape:window-y="-8"
     inkscape:window-maximized="1" />
  <metadata
     id="metadata5">
    <rdf:RDF>
      <cc:Work
         rdf:about="">
        <dc:format>image/svg+xml</dc:format>
        <dc:type
           rdf:resource="http://purl.org/dc/dcmitype/StillImage" />
        <dc:title></dc:title>
      </cc:Work>
    </rdf:RDF>
  </metadata>
  <g
     inkscape:label="Calque 1"
     inkscape:groupmode="layer"
     id="layer1"
     transform="translate(-57.452381,-143.54167)">
    <g
       transform="matrix(0.52679605,0,0,0.46322636,34.166942,-97.609807)"
       id="g672"
       style="fill:#b39361">
      <path
         style="fill:#b39361"
         inkscape:connector-curvature="0"
         d="m 49.2,542.618 h -4.588 c -0.227,0 -0.41,0.184 -0.41,0.408 0,0.226 0.184,0.409 0.41,0.409 H 49.2 c 0.227,0 0.41,-0.184 0.41,-0.409 0,-0.224 -0.183,-0.408 -0.41,-0.408 z"
         id="path634" />
      <path
         style="fill:#b39361"
         inkscape:connector-curvature="0"
         d="m 49.2,539.864 h -4.588 c -0.227,0 -0.41,0.184 -0.41,0.41 0,0.225 0.184,0.409 0.41,0.409 H 49.2 c 0.227,0 0.41,-0.185 0.41,-0.409 0,-0.226 -0.183,-0.41 -0.41,-0.41 z"
         id="path636" />
      <path
         style="fill:#b39361"
         inkscape:connector-curvature="0"
         d="m 49.2,537.11 h -4.588 c -0.227,0 -0.41,0.184 -0.41,0.41 0,0.226 0.184,0.409 0.41,0.409 H 49.2 c 0.227,0 0.41,-0.184 0.41,-0.409 0,-0.226 -0.183,-0.41 -0.41,-0.41 z"
         id="path638" />
      <path
         style="fill:#b39361"
         inkscape:connector-curvature="0"
         d="m 49.2,534.356 h -4.588 c -0.227,0 -0.41,0.185 -0.41,0.41 0,0.227 0.184,0.41 0.41,0.41 H 49.2 c 0.227,0 0.41,-0.184 0.41,-0.41 0,-0.225 -0.183,-0.41 -0.41,-0.41 z"
         id="path640" />
      <path
         style="fill:#b39361"
         inkscape:connector-curvature="0"
         d="m 56.541,542.618 h -4.587 c -0.227,0 -0.41,0.184 -0.41,0.408 0,0.226 0.184,0.409 0.41,0.409 h 4.587 c 0.227,0 0.411,-0.184 0.411,-0.409 -10e-4,-0.224 -0.184,-0.408 -0.411,-0.408 z"
         id="path642" />
      <path
         style="fill:#b39361"
         inkscape:connector-curvature="0"
         d="m 56.541,539.864 h -4.587 c -0.227,0 -0.41,0.184 -0.41,0.41 0,0.225 0.184,0.409 0.41,0.409 h 4.587 c 0.227,0 0.411,-0.185 0.411,-0.409 -10e-4,-0.226 -0.184,-0.41 -0.411,-0.41 z"
         id="path644" />
      <path
         style="fill:#b39361"
         inkscape:connector-curvature="0"
         d="m 56.541,537.11 h -4.587 c -0.227,0 -0.41,0.184 -0.41,0.41 0,0.226 0.184,0.409 0.41,0.409 h 4.587 c 0.227,0 0.411,-0.184 0.411,-0.409 -10e-4,-0.226 -0.184,-0.41 -0.411,-0.41 z"
         id="path646" />
      <path
         style="fill:#b39361"
         inkscape:connector-curvature="0"
         d="m 56.541,534.356 h -4.587 c -0.227,0 -0.41,0.185 -0.41,0.41 0,0.227 0.184,0.41 0.41,0.41 h 4.587 c 0.227,0 0.411,-0.184 0.411,-0.41 -10e-4,-0.225 -0.184,-0.41 -0.411,-0.41 z"
         id="path648" />
      <path
         style="fill:#b39361"
         inkscape:connector-curvature="0"
         d="m 56.541,531.604 h -4.587 c -0.227,0 -0.41,0.185 -0.41,0.41 0,0.225 0.184,0.409 0.41,0.409 h 4.587 c 0.227,0 0.411,-0.184 0.411,-0.409 0,-0.225 -0.184,-0.41 -0.411,-0.41 z"
         id="path650" />
      <path
         style="fill:#b39361"
         inkscape:connector-curvature="0"
         d="m 56.541,528.853 h -4.587 c -0.227,0 -0.41,0.184 -0.41,0.409 0,0.225 0.184,0.409 0.41,0.409 h 4.587 c 0.227,0 0.411,-0.184 0.411,-0.409 0,-0.225 -0.184,-0.409 -0.411,-0.409 z"
         id="path652" />
      <path
         style="fill:#b39361"
         inkscape:connector-curvature="0"
         d="m 56.541,526.098 h -4.587 c -0.227,0 -0.41,0.185 -0.41,0.409 0,0.227 0.184,0.41 0.41,0.41 h 4.587 c 0.227,0 0.411,-0.184 0.411,-0.41 -10e-4,-0.225 -0.184,-0.409 -0.411,-0.409 z"
         id="path654" />
      <path
         style="fill:#b39361"
         inkscape:connector-curvature="0"
         d="m 56.541,523.343 h -4.587 c -0.227,0 -0.41,0.186 -0.41,0.412 0,0.225 0.184,0.409 0.41,0.409 h 4.587 c 0.227,0 0.411,-0.185 0.411,-0.409 -10e-4,-0.227 -0.184,-0.412 -0.411,-0.412 z"
         id="path656" />
      <path
         style="fill:#b39361"
         inkscape:connector-curvature="0"
         d="m 56.541,520.591 h -4.587 c -0.227,0 -0.41,0.184 -0.41,0.41 0,0.225 0.184,0.408 0.41,0.408 h 4.587 c 0.227,0 0.411,-0.184 0.411,-0.408 -10e-4,-0.227 -0.184,-0.41 -0.411,-0.41 z"
         id="path658" />
      <path
         style="fill:#b39361"
         inkscape:connector-curvature="0"
         d="m 63.882,542.62 h -4.588 c -0.227,0 -0.41,0.184 -0.41,0.408 0,0.226 0.183,0.41 0.41,0.41 h 4.588 c 0.226,0 0.41,-0.185 0.41,-0.41 0,-0.224 -0.184,-0.408 -0.41,-0.408 z"
         id="path660" />
      <path
         style="fill:#b39361"
         inkscape:connector-curvature="0"
         d="m 63.882,539.865 h -4.588 c -0.227,0 -0.41,0.184 -0.41,0.411 0,0.225 0.183,0.409 0.41,0.409 h 4.588 c 0.226,0 0.41,-0.185 0.41,-0.409 0,-0.227 -0.184,-0.411 -0.41,-0.411 z"
         id="path662" />
      <path
         style="fill:#b39361"
         inkscape:connector-curvature="0"
         d="m 63.882,537.112 h -4.588 c -0.227,0 -0.41,0.185 -0.41,0.41 0,0.225 0.183,0.409 0.41,0.409 h 4.588 c 0.226,0 0.41,-0.185 0.41,-0.409 0,-0.225 -0.184,-0.41 -0.41,-0.41 z"
         id="path664" />
      <path
         style="fill:#b39361"
         inkscape:connector-curvature="0"
         d="m 63.882,534.358 h -4.588 c -0.227,0 -0.41,0.185 -0.41,0.41 0,0.227 0.183,0.41 0.41,0.41 h 4.588 c 0.226,0 0.41,-0.184 0.41,-0.41 0,-0.225 -0.184,-0.41 -0.41,-0.41 z"
         id="path666" />
      <path
         style="fill:#b39361"
         inkscape:connector-curvature="0"
         d="m 63.882,531.605 h -4.588 c -0.227,0 -0.41,0.185 -0.41,0.41 0,0.225 0.183,0.409 0.41,0.409 h 4.588 c 0.226,0 0.41,-0.184 0.41,-0.409 0,-0.225 -0.184,-0.41 -0.41,-0.41 z"
         id="path668" />
      <path
         style="fill:#b39361"
         inkscape:connector-curvature="0"
         d="m 63.882,528.853 h -4.588 c -0.227,0 -0.41,0.184 -0.41,0.409 0,0.225 0.183,0.409 0.41,0.409 h 4.588 c 0.226,0 0.41,-0.184 0.41,-0.409 0,-0.225 -0.184,-0.409 -0.41,-0.409 z"
         id="path670" />
    </g>
  </g>
</svg>
