<?xml version="1.0" encoding="UTF-8" standalone="no"?>
<!-- Created with Inkscape (http://www.inkscape.org/) -->

<svg
   xmlns:dc="http://purl.org/dc/elements/1.1/"
   xmlns:cc="http://creativecommons.org/ns#"
   xmlns:rdf="http://www.w3.org/1999/02/22-rdf-syntax-ns#"
   xmlns:svg="http://www.w3.org/2000/svg"
   xmlns="http://www.w3.org/2000/svg"
   xmlns:sodipodi="http://sodipodi.sourceforge.net/DTD/sodipodi-0.dtd"
   xmlns:inkscape="http://www.inkscape.org/namespaces/inkscape"
   width="10.58333mm"
   height="10.60975mm"
   viewBox="0 0 10.58333 10.60975"
   version="1.1"
   id="svg8"
   inkscape:version="0.92.4 (5da689c313, 2019-01-14)"
   sodipodi:docname="Icone l'idée.svg">
  <defs
     id="defs2" />
  <sodipodi:namedview
     id="base"
     pagecolor="#ffffff"
     bordercolor="#666666"
     borderopacity="1.0"
     inkscape:pageopacity="0.0"
     inkscape:pageshadow="2"
     inkscape:zoom="0.35"
     inkscape:cx="191.42857"
     inkscape:cy="314.33564"
     inkscape:document-units="mm"
     inkscape:current-layer="layer1"
     showgrid="false"
     fit-margin-top="0"
     fit-margin-left="0"
     fit-margin-right="0"
     fit-margin-bottom="0"
     showborder="false"
     inkscape:window-width="1280"
     inkscape:window-height="898"
     inkscape:window-x="-8"
     inkscape:window-y="-8"
     inkscape:window-maximized="1" />
  <metadata
     id="metadata5">
    <rdf:RDF>
      <cc:Work
         rdf:about="">
        <dc:format>image/svg+xml</dc:format>
        <dc:type
           rdf:resource="http://purl.org/dc/dcmitype/StillImage" />
        <dc:title></dc:title>
      </cc:Work>
    </rdf:RDF>
  </metadata>
  <g
     inkscape:label="Calque 1"
     inkscape:groupmode="layer"
     id="layer1"
     transform="translate(-55.184525,-221.39155)">
    <g
       transform="translate(-67.109265,-6.0273364)"
       id="g10943">
      <path
         style="fill:#b39361;stroke-width:0.45334172"
         inkscape:connector-curvature="0"
         d="m 127.51943,229.71269 c -1.66976,0 -3.02864,1.30105 -3.02864,2.9002 0,0.88939 0.42347,1.71359 1.16383,2.27162 0.0134,0.0191 0.0306,0.0359 0.0514,0.0492 0.005,0.003 0.39706,0.25551 0.39706,0.74035 0,0.008 0.008,0.012 0.008,0.02 9.2e-4,0.007 -0.006,0.012 -0.004,0.0186 l 0.49666,2.17359 c 0.019,0.0834 0.0959,0.14239 0.18532,0.14239 h 1.45942 c 0.0885,0 0.1654,-0.0594 0.18533,-0.14239 l 0.49759,-2.17359 c 0.002,-0.007 -0.006,-0.012 -0.005,-0.0186 9.3e-4,-0.008 0.009,-0.0124 0.009,-0.02 0,-0.47819 0.37991,-0.73059 0.39566,-0.74035 0.0171,-0.0111 0.0297,-0.0253 0.0417,-0.0408 0.74639,-0.55804 1.17356,-1.38666 1.17356,-2.2805 4.6e-4,-1.5987 -1.35795,-2.89975 -3.02818,-2.89975 z m 0.57729,7.95313 h -1.15364 l -0.0408,-0.17876 h 1.23518 z m 0.12416,-0.54295 h -1.4015 l -0.0417,-0.1801 h 1.4849 z m 0.12463,-0.54384 h -1.65123 l -0.16447,-0.72306 h 1.98249 z m 0.76307,-1.94781 c -0.0162,0.0111 -0.0296,0.024 -0.0408,0.0395 -0.12648,0.098 -0.42902,0.37262 -0.49667,0.82197 h -0.86128 v -2.536 c 0,-0.19917 0.17003,-0.36197 0.37805,-0.36197 0.10425,0 0.18996,-0.0816 0.18996,-0.18187 0,-0.10025 -0.0862,-0.18187 -0.18996,-0.18187 -0.2298,0 -0.42902,0.1038 -0.56847,0.25861 -0.0134,-0.0151 -0.0181,-0.0333 -0.0334,-0.047 -0.14224,-0.13663 -0.33127,-0.21159 -0.53095,-0.21159 -9.3e-4,0 -0.002,0 -0.003,0 -0.10425,0 -0.18903,0.0816 -0.18903,0.18275 0,0.10026 0.0853,0.18099 0.18995,0.18099 0,0 0,0 9.3e-4,0 0,0 0,0 9.3e-4,0 0.0987,0 0.19273,0.0368 0.26408,0.10513 0.0713,0.0674 0.11119,0.15925 0.11119,0.25684 v 2.536 h -0.86036 c -0.0672,-0.44713 -0.3674,-0.72127 -0.49574,-0.82108 -0.0116,-0.0151 -0.0255,-0.0284 -0.0417,-0.0399 -0.67504,-0.48884 -1.06143,-1.22431 -1.06143,-2.01878 0,-1.39864 1.18792,-2.53645 2.64872,-2.53645 1.46128,0 2.64966,1.13736 2.64966,2.53645 -4.6e-4,0.79402 -0.38779,1.52905 -1.06097,2.01833 z"
         id="path82-8" />
      <path
         style="fill:#b39361;stroke-width:0.45334172"
         inkscape:connector-curvature="0"
         d="m 127.58661,229.00384 c 0.10425,0 0.18996,-0.0816 0.18996,-0.18143 v -1.22165 c 0,-0.1007 -0.0862,-0.18187 -0.18996,-0.18187 -0.10517,0 -0.18903,0.0816 -0.18903,0.18187 v 1.22165 c -4.6e-4,0.10025 0.0839,0.18143 0.18903,0.18143 z"
         id="path84-9" />
      <path
         style="fill:#b39361;stroke-width:0.45334172"
         inkscape:connector-curvature="0"
         d="m 124.74608,230.02365 c 0.038,0.0359 0.0862,0.0532 0.13482,0.0532 0.0496,0 0.0978,-0.0173 0.13389,-0.0532 0.0741,-0.071 0.0741,-0.18586 0,-0.25728 l -0.90113,-0.86323 c -0.0741,-0.0714 -0.19459,-0.0714 -0.26872,0 -0.0732,0.0705 -0.0732,0.18587 0,0.25728 z"
         id="path86-5" />
      <path
         style="fill:#b39361;stroke-width:0.45334172"
         inkscape:connector-curvature="0"
         d="m 123.95058,232.48558 c 0,-0.10026 -0.0853,-0.18188 -0.18903,-0.18188 h -1.27781 c -0.10517,0 -0.18995,0.0821 -0.18995,0.18188 0,0.10069 0.0853,0.18187 0.18995,0.18187 h 1.27781 c 0.10378,0 0.18903,-0.0812 0.18903,-0.18187 z"
         id="path88-6" />
      <path
         style="fill:#b39361;stroke-width:0.45334172"
         inkscape:connector-curvature="0"
         d="m 124.74886,234.94661 -0.90392,0.86412 c -0.0732,0.071 -0.0732,0.18586 0,0.25684 0.038,0.0359 0.0862,0.0537 0.13482,0.0537 0.0473,0 0.0968,-0.0177 0.1339,-0.0537 l 0.90299,-0.86367 c 0.0741,-0.0714 0.0741,-0.18631 0,-0.25729 -0.0737,-0.0701 -0.19367,-0.0714 -0.26779,0 z"
         id="path90-2" />
      <path
         style="fill:#b39361;stroke-width:0.45334172"
         inkscape:connector-curvature="0"
         d="m 130.42484,235.10231 c -0.0741,-0.0692 -0.19367,-0.071 -0.26872,0 -0.0751,0.0714 -0.0751,0.18631 0,0.25729 l 0.90113,0.86544 c 0.0371,0.0355 0.0862,0.0532 0.13482,0.0532 0.0482,0 0.0968,-0.0177 0.1339,-0.0532 0.0741,-0.0705 0.0741,-0.18586 0,-0.25684 z"
         id="path92-1" />
      <path
         style="fill:#b39361;stroke-width:0.45334172"
         inkscape:connector-curvature="0"
         d="m 132.68717,232.3037 -1.27595,-0.001 c -0.10425,0 -0.18996,0.0812 -0.18996,0.18188 0,0.10025 0.0853,0.18098 0.18996,0.18098 l 1.27595,0.002 c 0.10517,0 0.18995,-0.0812 0.18995,-0.18187 0,-0.10026 -0.0839,-0.18188 -0.18995,-0.18188 z"
         id="path94-7" />
      <path
         style="fill:#b39361;stroke-width:0.45334172"
         inkscape:connector-curvature="0"
         d="m 130.29001,230.07644 c 0.0482,0 0.0968,-0.0178 0.13483,-0.0537 l 0.90298,-0.86278 c 0.0741,-0.0714 0.0741,-0.18675 0,-0.25728 -0.0732,-0.071 -0.19366,-0.0719 -0.26872,0 l -0.90298,0.86322 c -0.0751,0.0714 -0.0751,0.18587 0,0.25684 0.0366,0.0359 0.0853,0.0537 0.13389,0.0537 z"
         id="path96-4" />
    </g>
  </g>
</svg>
