<?xml version="1.0" encoding="UTF-8" standalone="no"?>
<!-- Created with Inkscape (http://www.inkscape.org/) -->

<svg
   xmlns:dc="http://purl.org/dc/elements/1.1/"
   xmlns:cc="http://creativecommons.org/ns#"
   xmlns:rdf="http://www.w3.org/1999/02/22-rdf-syntax-ns#"
   xmlns:svg="http://www.w3.org/2000/svg"
   xmlns="http://www.w3.org/2000/svg"
   xmlns:sodipodi="http://sodipodi.sourceforge.net/DTD/sodipodi-0.dtd"
   xmlns:inkscape="http://www.inkscape.org/namespaces/inkscape"
   width="6.0706mm"
   height="4.5868168mm"
   viewBox="0 0 6.0706 4.5868168"
   version="1.1"
   id="svg8"
   inkscape:version="0.92.4 (5da689c313, 2019-01-14)"
   sodipodi:docname="Icone mettre a jour son profil.svg">
  <defs
     id="defs2" />
  <sodipodi:namedview
     id="base"
     pagecolor="#ffffff"
     bordercolor="#666666"
     borderopacity="1.0"
     inkscape:pageopacity="0.0"
     inkscape:pageshadow="2"
     inkscape:zoom="0.35"
     inkscape:cx="177.18629"
     inkscape:cy="-85.617714"
     inkscape:document-units="mm"
     inkscape:current-layer="layer1"
     showgrid="false"
     fit-margin-top="0"
     fit-margin-left="0"
     fit-margin-right="0"
     fit-margin-bottom="0"
     showborder="false"
     inkscape:window-width="1280"
     inkscape:window-height="898"
     inkscape:window-x="-8"
     inkscape:window-y="-8"
     inkscape:window-maximized="1" />
  <metadata
     id="metadata5">
    <rdf:RDF>
      <cc:Work
         rdf:about="">
        <dc:format>image/svg+xml</dc:format>
        <dc:type
           rdf:resource="http://purl.org/dc/dcmitype/StillImage" />
        <dc:title></dc:title>
      </cc:Work>
    </rdf:RDF>
  </metadata>
  <g
     inkscape:label="Calque 1"
     inkscape:groupmode="layer"
     id="layer1"
     transform="translate(-58.952795,-121.5935)">
    <g
       id="g154"
       transform="translate(79.247112,25.623735)"
       style="fill:#b39361;fill-opacity:1">
      <g
         style="fill:#b39361;fill-opacity:1"
         id="g114"
         transform="matrix(0.26458333,0,0,0.26458333,-62.84355,-95.068134)">
        <path
           id="path110"
           d="m 172.287,727.523 c -2.502,0 -4.537,2.037 -4.537,4.541 0,2.503 2.035,4.536 4.537,4.536 2.504,0 4.541,-2.033 4.541,-4.536 -0.001,-2.503 -2.037,-4.541 -4.541,-4.541 z m 0,8.257 c -2.05,0 -3.718,-1.667 -3.718,-3.716 0,-2.051 1.668,-3.721 3.718,-3.721 2.053,0 3.72,1.67 3.72,3.721 0,2.049 -1.668,3.716 -3.72,3.716 z"
           inkscape:connector-curvature="0"
           style="fill:#b39361;fill-opacity:1" />
        <path
           id="path112"
           d="m 183.35,724.755 h -6.696 l -1.247,-2.493 c -0.07,-0.139 -0.211,-0.229 -0.366,-0.229 h -5.505 c -0.155,0 -0.297,0.09 -0.367,0.229 l -1.246,2.493 h -2.158 v -0.966 c 0,-0.227 -0.184,-0.411 -0.41,-0.411 h -2.752 c -0.227,0 -0.411,0.185 -0.411,0.411 v 0.966 h -0.967 c -0.227,0 -0.409,0.185 -0.409,0.41 v 13.794 c 0,0.228 0.183,0.41 0.409,0.41 h 22.126 c 0.227,0 0.409,-0.183 0.409,-0.41 v -13.794 c -0.001,-0.226 -0.183,-0.41 -0.41,-0.41 z m -20.339,-0.557 h 1.934 v 0.557 h -1.934 z m 19.929,14.352 h -21.307 v -12.975 h 0.968 2.752 2.821 c 0.155,0 0.297,-0.088 0.367,-0.228 l 1.247,-2.494 h 4.999 l 1.248,2.494 c 0.069,0.14 0.211,0.228 0.366,0.228 h 6.54 v 12.975 z"
           inkscape:connector-curvature="0"
           style="fill:#b39361;fill-opacity:1" />
      </g>
      <path
         inkscape:connector-curvature="0"
         id="path148"
         d="m -20.036248,98.632689 v -1.60462 h 0.869767 c 0.83689,0 0.877718,-0.014 1.080034,-0.36952 0.189543,-0.3331 0.271095,-0.36952 0.827429,-0.36952 0.556334,0 0.637887,0.0364 0.827429,0.36952 0.202316,0.35555 0.243147,0.36952 1.080035,0.36952 h 0.869767 v 1.60462 1.604621 h -2.777231 -2.77723 z m 3.382637,1.09379 c 0.408238,-0.18601 0.731001,-0.87588 0.62838,-1.3431 -0.04363,-0.19865 -0.246139,-0.50154 -0.450019,-0.6731 -0.509649,-0.42884 -1.095661,-0.41576 -1.600962,0.0357 -0.324017,0.2895 -0.389078,0.43777 -0.389078,0.88668 0,0.94006 0.924308,1.498101 1.811679,1.09379 z"
         style="opacity:0.73000004;fill:#b39361;fill-opacity:1;fill-rule:evenodd;stroke:none;stroke-width:0.79307801;stroke-miterlimit:4;stroke-dasharray:none;stroke-opacity:1" />
    </g>
  </g>
</svg>
