<?xml version="1.0" encoding="UTF-8" standalone="no"?>
<!-- Created with Inkscape (http://www.inkscape.org/) -->

<svg
   xmlns:dc="http://purl.org/dc/elements/1.1/"
   xmlns:cc="http://creativecommons.org/ns#"
   xmlns:rdf="http://www.w3.org/1999/02/22-rdf-syntax-ns#"
   xmlns:svg="http://www.w3.org/2000/svg"
   xmlns="http://www.w3.org/2000/svg"
   xmlns:sodipodi="http://sodipodi.sourceforge.net/DTD/sodipodi-0.dtd"
   xmlns:inkscape="http://www.inkscape.org/namespaces/inkscape"
   width="19.999998mm"
   height="19.999998mm"
   viewBox="0 0 19.999998 19.999998"
   version="1.1"
   id="svg8"
   inkscape:version="0.92.4 (5da689c313, 2019-01-14)"
   sodipodi:docname="Bouton apercu précédent.svg">
  <defs
     id="defs2" />
  <sodipodi:namedview
     id="base"
     pagecolor="#ffffff"
     bordercolor="#666666"
     borderopacity="1.0"
     inkscape:pageopacity="0.0"
     inkscape:pageshadow="2"
     inkscape:zoom="0.35"
     inkscape:cx="-53.633287"
     inkscape:cy="260.65243"
     inkscape:document-units="mm"
     inkscape:current-layer="layer1"
     showgrid="false"
     fit-margin-top="0"
     fit-margin-left="0"
     fit-margin-right="0"
     fit-margin-bottom="0"
     showborder="false"
     inkscape:window-width="1280"
     inkscape:window-height="898"
     inkscape:window-x="-8"
     inkscape:window-y="-8"
     inkscape:window-maximized="1" />
  <metadata
     id="metadata5">
    <rdf:RDF>
      <cc:Work
         rdf:about="">
        <dc:format>image/svg+xml</dc:format>
        <dc:type
           rdf:resource="http://purl.org/dc/dcmitype/StillImage" />
        <dc:title></dc:title>
      </cc:Work>
    </rdf:RDF>
  </metadata>
  <g
     inkscape:label="Calque 1"
     inkscape:groupmode="layer"
     id="layer1"
     transform="translate(-120.02381,-197.79762)">
    <g
       transform="matrix(-0.87550337,0,0,0.87554168,500.47117,-173.35325)"
       id="g506"
       style="fill:#b39361">
      <path
         style="fill:#b39361"
         inkscape:connector-curvature="0"
         d="m 423.127,423.91 c -6.301,0 -11.424,5.124 -11.424,11.424 0,6.297 5.123,11.419 11.424,11.419 6.297,0 11.42,-5.122 11.42,-11.419 0,-6.3 -5.123,-11.424 -11.42,-11.424 z m 0,22.024 c -5.848,0 -10.605,-4.756 -10.605,-10.6 0,-5.847 4.758,-10.604 10.605,-10.604 5.844,0 10.6,4.757 10.6,10.604 0,5.844 -4.756,10.6 -10.6,10.6 z"
         id="path502" />
      <path
         style="fill:#b39361"
         inkscape:connector-curvature="0"
         d="m 420.131,429.633 c -0.16,0.16 -0.16,0.42 0,0.58 l 5.121,5.121 -5.121,5.117 c -0.16,0.16 -0.16,0.419 0,0.579 0.08,0.08 0.186,0.12 0.291,0.12 0.104,0 0.209,-0.04 0.289,-0.12 l 5.699,-5.696 -5.699,-5.701 c -0.16,-0.159 -0.42,-0.159 -0.58,0 z"
         id="path504" />
    </g>
  </g>
</svg>
